<svg width="154" height="77" viewBox="0 0 154 77" fill="none" xmlns="http://www.w3.org/2000/svg">
<path d="M9.54038 15.9467C8.45222 15.9467 7.92079 15.3445 7.92079 14.0678V8.45513H11.8179V6.09443H7.92079V3.46875L3.03668 8.02153V8.45513H5.18771V13.5138C5.18771 14.5978 5.23832 15.3204 5.33955 15.7059C5.44077 16.0913 5.56731 16.4285 5.74445 16.6694C5.89629 16.9103 6.09874 17.1271 6.3518 17.3439C7.11099 17.9943 8.09793 18.3074 9.23671 18.3074C10.3755 18.3074 11.413 18.0425 12.3747 17.5366L12.4506 17.4884V14.9832L12.2228 15.1036C11.2865 15.6336 10.3755 15.9227 9.51508 15.9227L9.54038 15.9467Z" fill="white"/>
<path d="M24.5468 6.4558C23.8635 6.04629 23.1043 5.85358 22.2692 5.85358C20.8521 5.85358 19.612 6.38353 18.6251 7.39526V0H15.892V18.1148H18.6251V9.61143C19.1818 9.0333 19.6627 8.62379 20.1182 8.35881C20.5737 8.11792 21.0545 7.97339 21.5606 7.97339C22.2439 7.97339 22.7753 8.21428 23.2055 8.69606C23.6357 9.20192 23.8382 9.85232 23.8382 10.6713V18.0666H26.5713V11.2495C26.5713 9.87641 26.4194 8.8165 26.0904 8.11792C25.7615 7.39526 25.2553 6.84122 24.5721 6.43171L24.5468 6.4558Z" fill="white"/>
<path d="M40.2622 11.9962C40.2622 10.1413 39.756 8.64782 38.7691 7.53973C37.7822 6.43165 36.4156 5.85352 34.7454 5.85352C33.0752 5.85352 31.5821 6.43165 30.494 7.58791C29.4058 8.72008 28.8491 10.2136 28.8491 12.0443C28.8491 13.2488 29.1021 14.3328 29.6336 15.2481C30.1397 16.1635 30.8483 16.9103 31.7087 17.4643C32.5691 18.0184 33.7079 18.2833 35.0997 18.2833C36.1119 18.2833 36.9977 18.187 37.7315 17.9702C38.4907 17.7534 39.2499 17.4161 40.0091 16.9344L40.085 16.8862V14.2605L39.8573 14.4291C38.5413 15.3686 37.0736 15.8263 35.5046 15.8263C34.3911 15.8263 33.4801 15.5131 32.7968 14.8627C32.1389 14.2605 31.7593 13.4415 31.6581 12.4298H40.3128V11.9962H40.2622ZM31.6834 10.7676C31.8605 9.94861 32.1895 9.3223 32.6956 8.86462C33.227 8.38284 33.9103 8.14195 34.7454 8.14195C35.5805 8.14195 36.2385 8.38284 36.7193 8.86462C37.1748 9.3223 37.4532 9.94861 37.5291 10.7676H31.6581H31.6834Z" fill="white"/>
<path d="M0.000183105 55.7895V24.9558H7.44022C11.2362 24.9558 14.197 25.8471 16.3227 27.6538C18.4484 29.4604 19.5113 31.9897 19.5113 35.2176C19.5113 38.2769 18.5243 40.8062 16.5252 42.7574C14.526 44.7327 11.9953 45.7204 8.90798 45.7204C7.54144 45.7204 6.02307 45.4313 4.37816 44.8532V55.7654H0.0507956L0.000183105 55.7895ZM7.33899 28.7378H4.32755V41.3121C5.61817 41.9384 6.9847 42.2757 8.42716 42.2757C10.401 42.2757 12.046 41.6253 13.3113 40.3004C14.5766 38.9755 15.2092 37.2893 15.2092 35.2176C15.2092 33.8928 14.9056 32.7124 14.3235 31.6766C13.7162 30.6649 12.9064 29.9181 11.8688 29.4363C10.8313 28.9786 9.33818 28.7378 7.33899 28.7378Z" fill="white"/>
<path d="M28.7233 24.9557V29.6289L28.951 29.2675C31.0008 26.1119 33.0507 24.5461 35.1005 24.5461C36.6948 24.5461 38.365 25.317 40.1111 26.8587L37.8841 30.3997C36.4164 29.0748 35.0498 28.4004 33.7845 28.4004C32.418 28.4004 31.2286 29.0267 30.2164 30.2552C29.2041 31.5078 28.7233 32.9772 28.7233 34.6634V45.3348H24.4465V24.9075H28.7233V24.9557Z" fill="white"/>
<path d="M52.156 24.9316C55.4205 24.9316 58.1283 25.9434 60.3046 27.9427C62.4557 29.9421 63.5438 32.4714 63.5438 35.5066C63.5438 38.5418 62.4557 40.9025 60.254 42.8537C58.0524 44.8049 55.294 45.7685 51.9789 45.7685C48.6638 45.7685 46.0825 44.7808 43.9062 42.8055C41.7552 40.8302 40.667 38.3732 40.667 35.4103C40.667 32.4233 41.7552 29.9421 43.9315 27.9427C46.1078 25.9434 48.8662 24.9557 52.156 24.9557V24.9316ZM51.9283 28.569C49.9038 28.569 48.2083 29.1954 46.9176 30.4721C45.6017 31.7488 44.9691 33.3627 44.9691 35.338C44.9691 37.2892 45.627 38.8791 46.9682 40.1317C48.3095 41.3602 50.0303 41.9865 52.1307 41.9865C54.2311 41.9865 55.9267 41.3602 57.2426 40.1076C58.5838 38.855 59.2418 37.2651 59.2418 35.2898C59.2418 33.3145 58.5585 31.7488 57.1667 30.4721C55.7748 29.1954 54.0287 28.569 51.9536 28.569H51.9283Z" fill="white"/>
<path d="M106.033 35.5306H90.9503C91.0515 37.4817 91.7348 39.0475 93.0254 40.2038C94.2907 41.36 95.9356 41.9382 97.9348 41.9382C100.744 41.9382 103.325 41.1192 105.678 39.457V43.4076C104.363 44.2266 103.072 44.8288 101.807 45.1902C100.516 45.5515 99.023 45.7201 97.3021 45.7201C94.9486 45.7201 93.0254 45.2624 91.5576 44.323C90.0898 43.3835 88.9258 42.1309 88.04 40.5651C87.1543 38.9993 86.7241 37.1686 86.7241 35.097C86.7241 31.9895 87.6604 29.4602 89.5078 27.509C91.3552 25.5578 93.7593 24.5942 96.7201 24.5942C99.6809 24.5942 101.832 25.5337 103.527 27.4367C105.223 29.3397 106.058 31.8691 106.058 35.0488V35.5546L106.033 35.5306ZM91.0262 33.1217H101.832C101.731 31.5077 101.225 30.2551 100.314 29.3879C99.4025 28.5207 98.1878 28.0871 96.6695 28.0871C95.1511 28.0871 93.8858 28.5207 92.9242 29.3879C91.9625 30.2551 91.3299 31.5077 91.0262 33.1217Z" fill="white"/>
<path d="M114.865 24.956V27.5576C116.763 25.5582 118.914 24.5706 121.318 24.5706C122.659 24.5706 123.899 24.9078 125.038 25.5582C126.177 26.2086 127.062 27.124 127.67 28.2561C128.277 29.4124 128.555 31.2191 128.555 33.7002V45.3833H124.304V33.7484C124.304 31.6527 123.975 30.1592 123.292 29.2679C122.634 28.3766 121.495 27.9189 119.926 27.9189C117.927 27.9189 116.206 28.8825 114.814 30.7855V45.3833H110.487V24.956H114.865Z" fill="white"/>
<path d="M65.0375 71.7843V75.783C62.9118 76.5298 60.8114 76.9152 58.7869 76.9152C55.4211 76.9152 52.7387 75.9757 50.7395 74.0727C48.7403 72.1697 47.7534 69.6404 47.7534 66.4606C47.7534 63.2568 48.715 60.6552 50.6636 58.68C52.6122 56.7047 55.1681 55.717 58.3314 55.717C59.4448 55.717 60.4318 55.8134 61.3175 56.0061C62.2032 56.1988 63.2914 56.5842 64.582 57.1383V61.4502C62.431 60.1494 60.4571 59.499 58.6097 59.499C56.7624 59.499 55.1175 60.1494 53.9028 61.4261C52.6628 62.7028 52.0554 64.3408 52.0554 66.3161C52.0554 68.4118 52.7134 70.0499 54.0546 71.2784C55.3958 72.5069 57.1673 73.1092 59.4195 73.1092C61.0644 73.1092 62.9371 72.6515 65.0375 71.7602V71.7843Z" fill="white"/>
<path d="M80.1188 56.1028C83.3833 56.1028 86.0911 57.1145 88.2674 59.1139C90.4184 61.1133 91.5066 63.6426 91.5066 66.6778C91.5066 69.6166 90.4184 72.0737 88.2168 74.0248C86.0151 75.976 83.2568 76.9396 79.9416 76.9396C76.6265 76.9396 74.0453 75.952 71.869 73.9767C69.7179 72.0014 68.6298 69.5443 68.6298 66.5814C68.6298 63.6185 69.7179 61.1133 71.8943 59.1139C74.0706 57.1145 76.829 56.1269 80.1188 56.1269V56.1028ZM79.891 59.7402C77.8665 59.7402 76.171 60.3665 74.8804 61.6432C73.5645 62.9199 72.9318 64.5339 72.9318 66.5091C72.9318 68.4844 73.5898 70.0502 74.931 71.3028C76.2722 72.5313 77.9931 73.1577 80.0935 73.1577C82.1939 73.1577 83.8894 72.5313 85.2053 71.2787C86.5466 70.0261 87.2045 68.4362 87.2045 66.461C87.2045 64.4857 86.5213 62.9199 85.1294 61.6432C83.7376 60.3665 81.9914 59.7402 79.9163 59.7402H79.891Z" fill="white"/>
<path d="M110.538 50.5619H114.84V76.5297H105.73C102.567 76.5538 100.036 75.6143 98.1379 73.6872C96.24 71.7601 95.3036 69.2067 95.3036 66.0029C95.3036 62.9918 96.2906 60.5347 98.2898 58.5835C100.264 56.6564 102.794 55.6688 105.882 55.6688C107.324 55.6688 108.868 55.9578 110.538 56.536V50.5378V50.5619ZM110.538 73.1091V60.1734C109.222 59.5471 107.881 59.2098 106.514 59.2098C104.389 59.2098 102.718 59.8602 101.453 61.1851C100.213 62.51 99.5804 64.2685 99.5804 66.5087C99.5804 68.6044 100.137 70.2425 101.225 71.3747C101.883 72.0491 102.567 72.5068 103.3 72.7477C104.034 72.9886 105.35 73.1091 107.248 73.1091H110.538Z" fill="white"/>
<path d="M138.856 66.7017H123.773C123.875 68.6529 124.558 70.2187 125.848 71.3749C127.114 72.5312 128.759 73.1093 130.758 73.1093C133.567 73.1093 136.148 72.2903 138.502 70.6282V74.5787C137.186 75.3978 135.895 76 134.63 76.3613C133.339 76.7226 131.846 76.8913 130.125 76.8913C127.772 76.8913 125.848 76.4336 124.381 75.4941C122.913 74.5546 121.749 73.302 120.863 71.7363C119.977 70.1705 119.547 68.3397 119.547 66.2681C119.547 63.1606 120.484 60.6313 122.331 58.6801C124.178 56.7289 126.582 55.7654 129.543 55.7654C132.377 55.7654 134.655 56.7048 136.351 58.6079C138.046 60.5109 138.881 63.0402 138.881 66.2199V66.7258L138.856 66.7017ZM123.849 64.2928H134.655C134.554 62.6789 134.048 61.4262 133.137 60.5591C132.226 59.6919 131.011 59.2583 129.493 59.2583C127.974 59.2583 126.709 59.6919 125.747 60.5591C124.786 61.4262 124.153 62.6789 123.849 64.2928Z" fill="white"/>
<path d="M70.047 32.4955L74.1972 39.698L84.2438 19.9211H88.5206L75.9687 45.383H72.3752L65.8462 32.4955H70.047Z" fill="white"/>
<path d="M145.739 72.3863V76.8909H144.803V72.3863H143.133V71.5432H147.409V72.3863H145.739ZM153.053 76.8909L152.774 73.663L151.003 76.9391H150.674L148.978 73.7112L148.7 76.915H147.764L148.219 71.5673H148.877L150.902 75.3974L152.875 71.5673H153.533L153.989 76.915H153.027L153.053 76.8909Z" fill="white"/>
</svg>
