<svg width="47" height="25" viewBox="0 0 47 25" fill="none" xmlns="http://www.w3.org/2000/svg">
<g clip-path="url(#clip0_2_14)">
<path d="M2.91193 5.18161C2.5798 5.18161 2.41759 4.98593 2.41759 4.57109V2.74736H3.60708V1.9803H2.41759V1.12714L0.92688 2.60647V2.74736H1.58341V4.39107C1.58341 4.74329 1.59886 4.97811 1.62976 5.10334C1.66065 5.22858 1.69927 5.33816 1.75334 5.41643C1.79968 5.4947 1.86147 5.56514 1.93871 5.63559C2.17043 5.84692 2.47166 5.94868 2.81924 5.94868C3.16681 5.94868 3.48349 5.86258 3.777 5.69821L3.80017 5.68255V4.86853L3.73066 4.90766C3.44488 5.07986 3.16681 5.17379 2.9042 5.17379L2.91193 5.18161Z" fill="black"/>
<path d="M7.49216 2.09768C7.28362 1.96462 7.0519 1.902 6.79701 1.902C6.36447 1.902 5.986 2.0742 5.68477 2.40294V0H4.85059V5.88604H5.68477V3.12304C5.85469 2.93519 6.00145 2.80213 6.14048 2.71603C6.27951 2.63776 6.42626 2.5908 6.58074 2.5908C6.78929 2.5908 6.95149 2.66907 7.0828 2.82561C7.2141 2.98998 7.27589 3.20131 7.27589 3.46744V5.87038H8.11008V3.65529C8.11008 3.20914 8.06373 2.86475 7.96332 2.63776C7.86291 2.40294 7.70843 2.22292 7.49989 2.08986L7.49216 2.09768Z" fill="black"/>
<path d="M12.2888 3.89791C12.2888 3.29521 12.1343 2.80993 11.8331 2.44988C11.5318 2.08983 11.1147 1.90198 10.605 1.90198C10.0952 1.90198 9.63948 2.08983 9.30735 2.46553C8.97522 2.83341 8.8053 3.3187 8.8053 3.91356C8.8053 4.30492 8.88254 4.65714 9.04474 4.95458C9.19922 5.25201 9.41549 5.49465 9.6781 5.67468C9.94071 5.8547 10.2883 5.9408 10.7131 5.9408C11.0221 5.9408 11.2924 5.90949 11.5164 5.83905C11.7481 5.7686 11.9798 5.65902 12.2115 5.50248L12.2347 5.48682V4.63366L12.1652 4.68845C11.7636 4.99371 11.3156 5.14243 10.8367 5.14243C10.4968 5.14243 10.2188 5.04068 10.0102 4.82934C9.80941 4.63366 9.69355 4.36754 9.66265 4.0388H12.3042V3.89791H12.2888ZM9.67038 3.49872C9.72444 3.2326 9.82485 3.02909 9.97933 2.88037C10.1415 2.72383 10.3501 2.64556 10.605 2.64556C10.8599 2.64556 11.0607 2.72383 11.2074 2.88037C11.3465 3.02909 11.4314 3.2326 11.4546 3.49872H9.66265H9.67038Z" fill="black"/>
<path d="M0 18.1277V8.10895H2.27083C3.42942 8.10895 4.33311 8.39855 4.98192 8.98559C5.63073 9.57263 5.95514 10.3945 5.95514 11.4433C5.95514 12.4374 5.6539 13.2592 5.04371 13.8932C4.43353 14.5351 3.66113 14.856 2.71882 14.856C2.30173 14.856 1.83829 14.762 1.33624 14.5742V18.1199H0.0154478L0 18.1277ZM2.23993 9.33781H1.32079V13.4236C1.71471 13.6271 2.1318 13.7367 2.57206 13.7367C3.17453 13.7367 3.67658 13.5254 4.06278 13.0949C4.44897 12.6644 4.64207 12.1165 4.64207 11.4433C4.64207 11.0128 4.54938 10.6293 4.37173 10.2927C4.18636 9.96399 3.93919 9.72135 3.62251 9.5648C3.30583 9.41609 2.85012 9.33781 2.23993 9.33781Z" fill="black"/>
<path d="M8.76665 8.10895V9.62743L8.83616 9.51002C9.4618 8.48466 10.0874 7.97589 10.7131 7.97589C11.1997 7.97589 11.7095 8.22636 12.2424 8.7273L11.5627 9.8779C11.1147 9.4474 10.6976 9.22824 10.3114 9.22824C9.89434 9.22824 9.53131 9.43175 9.22236 9.83093C8.9134 10.2379 8.76665 10.7154 8.76665 11.2633V14.7307H7.4613V8.0933H8.76665V8.10895Z" fill="black"/>
<path d="M15.919 8.10114C16.9154 8.10114 17.7419 8.42988 18.4061 9.07953C19.0626 9.72919 19.3948 10.551 19.3948 11.5373C19.3948 12.5235 19.0626 13.2906 18.3907 13.9246C17.7187 14.5586 16.8768 14.8716 15.8649 14.8716C14.8531 14.8716 14.0653 14.5507 13.401 13.9089C12.7445 13.2671 12.4124 12.4687 12.4124 11.506C12.4124 10.5354 12.7445 9.72919 13.4087 9.07953C14.073 8.42988 14.9149 8.10896 15.919 8.10896V8.10114ZM15.8495 9.28304C15.2316 9.28304 14.7141 9.48654 14.3202 9.90139C13.9185 10.3162 13.7254 10.8406 13.7254 11.4825C13.7254 12.1165 13.9262 12.6331 14.3356 13.0401C14.745 13.4393 15.2702 13.6428 15.9113 13.6428C16.5524 13.6428 17.0699 13.4393 17.4715 13.0323C17.8809 12.6252 18.0817 12.1086 18.0817 11.4668C18.0817 10.825 17.8732 10.3162 17.4483 9.90139C17.0235 9.48654 16.4906 9.28304 15.8572 9.28304H15.8495Z" fill="black"/>
<path d="M32.3632 11.5451H27.7597C27.7906 12.1791 27.9992 12.6879 28.3931 13.0636C28.7793 13.4393 29.2814 13.6271 29.8915 13.6271C30.7489 13.6271 31.5367 13.361 32.2551 12.8209V14.1046C31.8534 14.3707 31.4595 14.5664 31.0733 14.6838C30.6794 14.8012 30.2237 14.856 29.6984 14.856C28.9801 14.856 28.3931 14.7073 27.9451 14.402C27.4971 14.0968 27.1418 13.6898 26.8715 13.181C26.6012 12.6722 26.4698 12.0774 26.4698 11.4042C26.4698 10.3945 26.7556 9.57267 27.3195 8.93867C27.8833 8.30466 28.6171 7.99158 29.5208 7.99158C30.4245 7.99158 31.081 8.29684 31.5985 8.91518C32.116 9.53353 32.3709 10.3554 32.3709 11.3886V11.5529L32.3632 11.5451ZM27.7829 10.7624H31.081C31.0501 10.238 30.8956 9.83096 30.6176 9.54918C30.3395 9.26741 29.9688 9.12652 29.5053 9.12652C29.0419 9.12652 28.6557 9.26741 28.3622 9.54918C28.0687 9.83096 27.8756 10.238 27.7829 10.7624Z" fill="black"/>
<path d="M35.0589 8.10894V8.95427C35.6382 8.30462 36.2947 7.9837 37.0285 7.9837C37.4379 7.9837 37.8163 8.09328 38.1639 8.30462C38.5115 8.51595 38.7818 8.81338 38.9672 9.18126C39.1526 9.55697 39.2375 10.144 39.2375 10.9502V14.7464H37.9399V10.9659C37.9399 10.2849 37.8395 9.79961 37.631 9.51C37.4301 9.2204 37.0826 9.07168 36.6037 9.07168C35.9935 9.07168 35.4683 9.38477 35.0434 10.0031V14.7464H33.7227V8.10894H35.0589Z" fill="black"/>
<path d="M19.8505 23.325V24.6243C19.2017 24.8669 18.5606 24.9922 17.9427 24.9922C16.9154 24.9922 16.0967 24.6869 15.4865 24.0686C14.8763 23.4502 14.5751 22.6284 14.5751 21.5952C14.5751 20.5542 14.8686 19.7088 15.4633 19.067C16.0581 18.4252 16.8382 18.1042 17.8037 18.1042C18.1435 18.1042 18.4448 18.1356 18.7151 18.1982C18.9854 18.2608 19.3176 18.386 19.7115 18.5661V19.9671C19.0549 19.5444 18.4525 19.3331 17.8886 19.3331C17.3248 19.3331 16.8227 19.5444 16.452 19.9593C16.0735 20.3741 15.8881 20.9064 15.8881 21.5482C15.8881 22.2292 16.089 22.7614 16.4983 23.1606C16.9077 23.5598 17.4484 23.7555 18.1358 23.7555C18.6378 23.7555 19.2094 23.6068 19.8505 23.3171V23.325Z" fill="black"/>
<path d="M24.4539 18.2295C25.4503 18.2295 26.2768 18.5582 26.941 19.2079C27.5976 19.8575 27.9297 20.6794 27.9297 21.6656C27.9297 22.6205 27.5976 23.4189 26.9256 24.0529C26.2536 24.6869 25.4117 25 24.3999 25C23.388 25 22.6002 24.6791 21.9359 24.0373C21.2794 23.3954 20.9473 22.5971 20.9473 21.6343C20.9473 20.6716 21.2794 19.8575 21.9436 19.2079C22.6079 18.5582 23.4498 18.2373 24.4539 18.2373V18.2295ZM24.3844 19.4114C23.7665 19.4114 23.249 19.6149 22.8551 20.0297C22.4534 20.4446 22.2603 20.969 22.2603 21.6108C22.2603 22.2527 22.4612 22.7614 22.8705 23.1684C23.2799 23.5676 23.8051 23.7711 24.4462 23.7711C25.0873 23.7711 25.6048 23.5676 26.0064 23.1606C26.4158 22.7536 26.6166 22.237 26.6166 21.5952C26.6166 20.9533 26.4081 20.4446 25.9833 20.0297C25.5584 19.6149 25.0255 19.4114 24.3921 19.4114H24.3844Z" fill="black"/>
<path d="M33.7381 16.4292H35.0511V24.8669H32.2705C31.305 24.8747 30.5326 24.5695 29.9533 23.9433C29.374 23.3171 29.0883 22.4874 29.0883 21.4464C29.0883 20.468 29.3895 19.6697 29.9997 19.0357C30.6021 18.4095 31.3745 18.0886 32.3169 18.0886C32.7571 18.0886 33.2283 18.1825 33.7381 18.3704V16.4214V16.4292ZM33.7381 23.7555V19.5523C33.3364 19.3488 32.927 19.2392 32.5099 19.2392C31.8611 19.2392 31.3514 19.4505 30.9652 19.881C30.5867 20.3115 30.3936 20.8829 30.3936 21.6108C30.3936 22.2918 30.5635 22.824 30.8957 23.1919C31.0965 23.4111 31.305 23.5598 31.529 23.638C31.753 23.7163 32.1547 23.7555 32.7339 23.7555H33.7381Z" fill="black"/>
<path d="M42.3811 21.6735H37.7777C37.8086 22.3075 38.0171 22.8162 38.411 23.1919C38.7972 23.5676 39.2993 23.7555 39.9095 23.7555C40.7668 23.7555 41.5547 23.4894 42.273 22.9493V24.233C41.8714 24.4991 41.4774 24.6948 41.0912 24.8122C40.6973 24.9296 40.2416 24.9844 39.7164 24.9844C38.9981 24.9844 38.411 24.8357 37.9631 24.5304C37.5151 24.2251 37.1598 23.8181 36.8894 23.3094C36.6191 22.8006 36.4878 22.2057 36.4878 21.5326C36.4878 20.5229 36.7736 19.701 37.3374 19.067C37.9013 18.433 38.635 18.1199 39.5387 18.1199C40.4038 18.1199 41.099 18.4252 41.6165 19.0435C42.134 19.6619 42.3889 20.4837 42.3889 21.5169V21.6813L42.3811 21.6735ZM37.8009 20.8908H41.099C41.0681 20.3663 40.9136 19.9593 40.6355 19.6775C40.3575 19.3958 39.9867 19.2549 39.5233 19.2549C39.0599 19.2549 38.6737 19.3958 38.3801 19.6775C38.0866 19.9593 37.8935 20.3663 37.8009 20.8908Z" fill="black"/>
<path d="M21.3798 10.5589L22.6465 12.8992L25.7129 6.47308H27.0183L23.1872 14.7464H22.0904L20.0977 10.5589H21.3798Z" fill="black"/>
<path d="M44.482 23.5207V24.9843H44.1962V23.5207H43.6865V23.2467H44.9918V23.5207H44.482ZM46.7142 24.9843L46.6293 23.9355L46.0886 25H45.9882L45.4707 23.9511L45.3857 24.9922H45.0999L45.239 23.2545H45.4398L46.0577 24.4991L46.6602 23.2545H46.861L47 24.9922H46.7065L46.7142 24.9843Z" fill="black"/>
</g>
<defs>
<clipPath id="clip0_2_14">
<rect width="47" height="25" fill="white"/>
</clipPath>
</defs>
</svg>
